<?xml version="1.0" encoding="utf-8"?>
<!-- Generator: Adobe Illustrator 24.3.0, SVG Export Plug-In . SVG Version: 6.00 Build 0)  -->
<svg version="1.1" id="Capa_1" xmlns="http://www.w3.org/2000/svg" xmlns:xlink="http://www.w3.org/1999/xlink" x="0px" y="0px"
	 viewBox="0 0 632.6 412.9" style="enable-background:new 0 0 632.6 412.9;" xml:space="preserve">
<style type="text/css">
	.st0{fill:#B3E3EF;}
	.st1{fill:#61B3DB;}
	.st2{fill:#2D80AA;}
	.st3{clip-path:url(#SVGID_2_);}
	.st4{fill:#29266B;}
	.st5{fill:#C9AA7D;}
	.st6{fill:#000100;}
	.st7{fill:#FFFFFF;}
	.st8{fill:none;stroke:#000100;stroke-width:0.75;stroke-linecap:round;stroke-linejoin:round;stroke-miterlimit:10;}
	.st9{fill:none;stroke:#000100;stroke-miterlimit:10;}
	.st10{opacity:0.52;}
	.st11{fill:#833125;}
	.st12{fill:#F2D18F;}
	.st13{fill:#E8C079;}
	.st14{fill:#B7DFEA;}
	.st15{fill:#A2CCDA;}
	.st16{fill:#C6856B;}
	.st17{fill:none;stroke:#000000;stroke-miterlimit:10;}
	.st18{fill:#DA3F3A;}
	.st19{fill:#231F20;}
	.st20{fill:#DDDDDD;}
	.st21{enable-background:new    ;}
	.st22{fill:#B54812;}
	.st23{fill:#8C2F06;}
	.st24{fill:#BFBAA9;}
	.st25{fill:#A5A297;}
	.st26{fill:#F4A822;}
	.st27{fill:#FFB948;}
	.st28{fill:#A04512;}
	.st29{fill:#7F3008;}
</style>
<g>
	<g>
		<g>
			<g>
				<path class="st0" d="M475.7,254.8H159.5c-11.6,0-20.9-9.1-20.9-20.4V42c0-11.2,9.4-20.4,20.9-20.4h316.2
					c11.6,0,20.9,9.1,20.9,20.4v192.4C496.6,245.7,487.3,254.8,475.7,254.8z"/>
			</g>
		</g>
		<g>
			<g>
				<path class="st1" d="M451.1,240.3h-277c-10.5,0-18.9-8-18.9-17.8V54c0-9.8,8.5-17.8,18.9-17.8h277.1c10.5,0,18.9,8,18.9,17.8
					v168.4C470.1,232.3,461.6,240.3,451.1,240.3z"/>
			</g>
		</g>
		<g>
			<g>
				<path class="st2" d="M486.8,159c0,1.9-1.8,3.5-3.9,3.5l0,0c-2.2,0-3.9-1.6-3.9-3.5v-40.8c0-1.9,1.8-3.5,3.9-3.5l0,0
					c2.2,0,3.9,1.6,3.9,3.5V159z"/>
			</g>
		</g>
	</g>
	<g>
		<g>
			<g>
				<g>
					<defs>
						<path id="SVGID_1_" d="M451.1,240.3h-277c-10.5,0-18.9-8-18.9-17.8V54c0-9.8,8.5-17.8,18.9-17.8h277.1
							c10.5,0,18.9,8,18.9,17.8v168.4C470.1,232.3,461.6,240.3,451.1,240.3z"/>
					</defs>
					<clipPath id="SVGID_2_">
						<use xlink:href="#SVGID_1_"  style="overflow:visible;"/>
					</clipPath>
					<g class="st3">
						<path class="st4" d="M361.6,352.3h-87.9c-40.5,0-73.3-32.8-73.3-73.3v-41.5c0-40.5,32.8-73.3,73.3-73.3h87.9
							c40.5,0,73.3,32.8,73.3,73.3V279C434.8,319.5,402,352.3,361.6,352.3z"/>
					</g>
				</g>
			</g>
		</g>
	</g>
	<g>
		<g>
			<path class="st5" d="M350.1,105.6c5-5,11.4-5.4,14.8,1.6c1.4,2.9,2,6.3,1.3,9.5s-2.8,6.1-5.7,7.5c-2.9,1.4-6.7,1.1-9.1-1"/>
		</g>
		<g>
			<path class="st5" d="M345.6,74.5c-9.8-6.1-21.4-9.3-33-8.9c-5.7,0.2-11.5,1.2-16.4,4.2c-6.6,4-10.8,11-12.8,18.5
				c-2,7.4-1.9,15.2-1.5,22.9c0.4,6.2,1,12.7,4.2,18.1c4.1,6.9,11.8,10.6,17.5,15.6c4.6,4,10.5,5.9,16.6,6.6
				c11.1,1.3,26.7-0.6,33.6-10.7c6-8.9,8-17.5,6.7-28.2c-1.2-10.7-4.9-23.9-4.9-23.9"/>
		</g>
		<path class="st5" d="M283.6,129l-0.5,42.4c0,0,7.1,14.6,38.3,15.1c23.9,0.4,31.9-17.1,31.9-17.1l-6.7-35.3"/>
		<g>
			<path class="st6" d="M285.2,77.5c9.2-11.9,24.5-18.6,39.3-17.4s27.5,5,34.8,18.1c2.7,4.8,5.8,15.7,4.9,21.2
				c-20.6-5.8-41.9-9.4-63.3-10.7c-7.2,10.7-12.6,36-17.9,47.8c-4.4-2.5-9.4-12.8-10.9-17.6C268.5,107,268,101,269,92.5"/>
		</g>
		<path class="st6" d="M319,108c0,1.8-1.4,3.2-3.2,3.2c-1.8,0-3.2-1.4-3.2-3.2s1.4-3.2,3.2-3.2S319,106.2,319,108z"/>
		<circle class="st6" cx="348.6" cy="104.8" r="3.2"/>
		<g>
			<g>
				<path class="st6" d="M338.6,113.9c0.7,1.5,1.3,3,1.9,4.5c0.4,1.2,0.9,2.3,1.2,3.5c0.2,0.8,0.5,1.9,0.2,2.7
					c-0.3,0.7-1.4,0.7-2,0.8c-1.1,0.1-2.2,0-3.2,0c-0.3,0-0.3,0.5,0,0.5c1,0.1,2.1,0.1,3.1,0.1c0.7,0,1.5-0.1,2.1-0.5
					c0.8-0.6,0.7-1.6,0.6-2.5c-0.4-2.5-1.6-5-2.7-7.2c-0.3-0.6-0.7-1.3-1-1.9C338.7,113.8,338.6,113.9,338.6,113.9L338.6,113.9z"/>
			</g>
		</g>
		<g>
			<path class="st7" d="M330.5,131.1c0.1,1.9,0.2,3.8,0.7,5.6c1.4,5.1,7.1,6.4,10,2.2c1.3-1.9,1.6-4.7,1.9-7.3L330.5,131.1z"/>
		</g>
		<g>
			<path class="st5" d="M292.3,111.9c-6.3-3.2-12.5-1.6-13.6,6.1c-0.5,3.2,0,6.6,1.6,9.4c1.6,2.8,4.5,5,7.7,5.4s6.7-1,8.4-3.8"/>
		</g>
		<g>
			<g>
				<path class="st6" d="M282.5,116.8c0.6-0.9,1.6-1.6,2.7-1.6c1,0,1.9,0.5,2.6,1s1.4,1.2,1.8,1.9c0.6,1,0.7,2.3,0.8,3.4
					c0,1.7-0.4,3.5-1.1,5c-0.1,0.2,0.2,0.4,0.4,0.2c0.8-1.5,1.2-3.1,1.2-4.7c0-1.3-0.1-2.8-0.8-4c-0.9-1.7-2.9-3.2-4.8-3.2
					c-0.6,0-1.1,0.1-1.6,0.4C283.1,115.6,282.7,116.1,282.5,116.8C282.4,116.8,282.4,116.8,282.5,116.8L282.5,116.8z"/>
			</g>
		</g>
		<g>
			<g>
				<path class="st6" d="M285.3,132.6c1.3,1.1,3.4,1.2,5,0.9c1.8-0.3,3.4-1.1,4.5-2.6c0.1-0.1-0.1-0.3-0.2-0.2
					c-1.2,1.2-2.7,2-4.3,2.3c-0.8,0.1-1.7,0.2-2.5,0c-0.8-0.1-1.5-0.4-2.3-0.7C285.3,132.3,285.2,132.5,285.3,132.6L285.3,132.6z"/>
			</g>
		</g>
		<path class="st8" d="M307.6,101.9c3.5-3.9,9.9-4,12.9-0.5"/>
		<path class="st8" d="M344,99c2.5-3,7.2-3.1,9.4-0.3"/>
		<path class="st9" d="M305.6,145.1c13,6.6,29.8,8.6,43.1,1.6"/>
	</g>
</g>
<g>
	<text transform="matrix(1 0 0 1 154.6021 610.506)" class="st7" style="font-family:'Roboto-Medium'; font-size:38px;">Avisos importantes</text>
</g>
<g>
	<text transform="matrix(1 0 0 1 103.7947 492.8767)" class="st7" style="font-family:'Roboto-Medium'; font-size:38px;">Desarrollo del tema</text>
</g>
<g>
	<g class="st10">
		<g>
			<path class="st7" d="M454.6,280.2c0,0.8-0.5,1.3-1.3,1.3h-71.4c-0.8,0-1.3-0.5-1.3-1.3l0,0c0-0.8,0.5-1.3,1.3-1.3h71.4
				C453.9,278.9,454.6,279.4,454.6,280.2L454.6,280.2z"/>
		</g>
	</g>
	<g class="st10">
		<g>
			<path class="st7" d="M454.6,286c0,0.8-0.5,1.3-1.3,1.3h-71.4c-0.8,0-1.3-0.5-1.3-1.3l0,0c0-0.8,0.5-1.3,1.3-1.3h71.4
				C453.9,284.7,454.6,285.2,454.6,286L454.6,286z"/>
		</g>
	</g>
	<g>
		<g>
			<g>
				<rect x="323.3" y="216.3" class="st11" width="109.8" height="105.2"/>
			</g>
		</g>
		<g>
			<g>
				<rect x="433.1" y="216.3" class="st11" width="109.8" height="105.2"/>
			</g>
		</g>
	</g>
	<g>
		<g>
			<g>
				<path class="st11" d="M437.2,319.4c0,2.2-1.9,4.1-4.1,4.1l0,0c-2.3,0-4.1-1.8-4.1-4.1V218.6c0-2.2,1.9-4.1,4.1-4.1l0,0
					c2.3,0,4.1,1.8,4.1,4.1V319.4z"/>
			</g>
		</g>
	</g>
	<g>
		<g>
			<g>
				<rect x="326.7" y="213.5" class="st12" width="106.3" height="104.8"/>
			</g>
		</g>
		<g>
			<g>
				<rect x="433.1" y="213.5" class="st13" width="106.3" height="104.8"/>
			</g>
		</g>
	</g>
	<g>
		<g>
			<g>
				<rect x="326.7" y="213.5" class="st14" width="106.3" height="104.8"/>
			</g>
		</g>
		<g>
			<g>
				<rect x="433.1" y="213.5" class="st15" width="106.3" height="104.8"/>
			</g>
		</g>
	</g>
	<g class="st10">
		<g>
			<path class="st7" d="M426.8,225.5c0,0.9-0.8,1.6-1.6,1.6h-87c-0.9,0-1.6-0.8-1.6-1.6l0,0c0-0.9,0.8-1.6,1.6-1.6h87
				C426,223.8,426.8,224.6,426.8,225.5L426.8,225.5z"/>
		</g>
	</g>
	<g class="st10">
		<g>
			<path class="st7" d="M532.8,225.5c0,0.9-0.8,1.6-1.6,1.6h-87c-0.9,0-1.6-0.8-1.6-1.6l0,0c0-0.9,0.8-1.6,1.6-1.6h87
				C532,223.8,532.8,224.6,532.8,225.5L532.8,225.5z"/>
		</g>
	</g>
	<g class="st10">
		<g>
			<path class="st7" d="M532.8,235.8c0,0.9-0.8,1.6-1.6,1.6h-87c-0.9,0-1.6-0.8-1.6-1.6l0,0c0-0.9,0.8-1.6,1.6-1.6h87
				C532,234.2,532.8,234.9,532.8,235.8L532.8,235.8z"/>
		</g>
	</g>
	<g class="st10">
		<g>
			<path class="st7" d="M472,251.3c0,0.9-0.2,1.6-0.5,1.6H443c-0.3,0-0.5-0.8-0.5-1.6l0,0c0-0.9,0.2-1.6,0.5-1.6h28.5
				C471.8,249.7,472,250.4,472,251.3L472,251.3z"/>
		</g>
	</g>
	<g class="st10">
		<g>
			<path class="st7" d="M426.8,233.8c0,0.9-0.8,1.6-1.6,1.6h-87c-0.9,0-1.6-0.8-1.6-1.6l0,0c0-0.9,0.8-1.6,1.6-1.6h87
				C426,232.3,426.8,233,426.8,233.8L426.8,233.8z"/>
		</g>
	</g>
	<g class="st10">
		<g>
			<path class="st7" d="M426.8,249.8c0,0.9-0.8,1.6-1.6,1.6h-87c-0.9,0-1.6-0.8-1.6-1.6l0,0c0-0.9,0.8-1.6,1.6-1.6h87
				C426,248.1,426.8,248.9,426.8,249.8L426.8,249.8z"/>
		</g>
	</g>
	<g class="st10">
		<g>
			<path class="st7" d="M426.8,287.8c0,0.9-0.8,1.6-1.6,1.6h-87c-0.9,0-1.6-0.8-1.6-1.6l0,0c0-0.9,0.8-1.6,1.6-1.6h87
				C426,286.2,426.8,286.9,426.8,287.8L426.8,287.8z"/>
		</g>
	</g>
	<g class="st10">
		<g>
			<path class="st7" d="M426.8,294.9c0,0.9-0.8,1.6-1.6,1.6h-87c-0.9,0-1.6-0.8-1.6-1.6l0,0c0-0.9,0.8-1.6,1.6-1.6h87
				C426,293.3,426.8,294,426.8,294.9L426.8,294.9z"/>
		</g>
	</g>
	<g>
		<g>
			<g>
				<path class="st16" d="M358,311c-4.4-4-24.2,2.9-28.7,0.8c-4.5-2-1.8-6.7-1.8-6.7l12.2-16.4c3.8-5.2,2.7-12.4-2.4-16.1
					l-14.1-10.4c-16.9-12.5-30.2-11.5-42.8,5.4l-22.9,42.3c-1.4,2.5-22.7,37-20.3,38.8l36.7,8c5.9,4.4,20.4-18.2,27-21.6
					c2.6-1.3,5.2-2.5,6.7-3.1c9.6-3.3,26.5-5.1,39.8-6.7C360.6,323.7,362.4,314.9,358,311z"/>
			</g>
		</g>
		<g>
			<g>
				<path class="st16" d="M291.7,270.3c-1.8,3.6-5.2,15.1-8,13.7l-0.4-9.6c-3-1.4-7.8,3.1-6-0.5l24.3-51c1.8-3.6,5.6-5.5,8.6-4.1
					l0,0c3,1.4,3.8,5.5,2.1,9.2L291.7,270.3z"/>
			</g>
		</g>
		<g>
			<g>
				<path class="st16" d="M313.2,265.7c-2.1,3.5-6,4.9-8.9,3.3l0,0c-2.7-1.6-3.3-5.9-1.2-9.3l24.4-40.2c2.1-3.5,6-4.9,8.9-3.3l0,0
					c2.7,1.6,3.3,5.9,1.2,9.3L313.2,265.7z"/>
			</g>
		</g>
		<g>
			<g>
				<path class="st16" d="M334.8,292.5c-3.1,2.6-7.4,2.9-9.4,0.4l0,0c-2.2-2.4-1.4-6.6,1.6-9.3l35.5-30.9c3.1-2.6,7.4-2.9,9.4-0.4
					l0,0c2.2,2.4,1.4,6.6-1.6,9.3L334.8,292.5z"/>
			</g>
		</g>
		<g>
			<g>
				<path class="st16" d="M331.1,271c-2.4,3.3-6.6,4.3-9.2,2.3l0,0c-2.6-2-2.7-6.3-0.2-9.4l28.5-37.5c2.4-3.3,6.6-4.3,9.2-2.3l0,0
					c2.6,2,2.7,6.3,0.2,9.4L331.1,271z"/>
			</g>
		</g>
		<g>
			<g>
				<path class="st17" d="M304.4,222.7c1.1-1.5,3.3-1.9,4.8-0.8c1.5,1.1,1.9,3.3,0.8,4.8"/>
			</g>
		</g>
		<g>
			<g>
				<path class="st17" d="M330,220.2c1.1-1.5,3.3-1.9,4.8-0.8c1.5,1.1,1.9,3.3,0.8,4.8"/>
			</g>
		</g>
		<g>
			<g>
				<path class="st17" d="M352.4,227.9c1.1-1.5,3.3-1.9,4.8-0.8c1.5,1.1,1.9,3.3,0.8,4.8"/>
			</g>
		</g>
		<g>
			<g>
				<path class="st17" d="M363.8,254.8c1.1-1.5,3.3-1.9,4.8-0.8s1.9,3.3,0.8,4.8"/>
			</g>
		</g>
	</g>
	<g>
		<g>
			<g>
				<g>
					<path class="st16" d="M509.7,270.7c9.7-15.8,47.6-42,47.4-33.2c-1,37.2,65.1,93.4,63.9,99.4s-38,12.1-45.7,12.4
						C567.5,349.7,501,284.9,509.7,270.7z"/>
				</g>
			</g>
			<g>
				<g>
					<path class="st16" d="M530.4,296.9c-11.6,0.7-44.4-13.4-46.8-22.1c-4.3-15.6-8.7-29.8-0.3-31.1c8.3-1.3,13.8,12.1,14.5,19.2
						s21,9.2,21,9.2L530.4,296.9z"/>
				</g>
			</g>
			<g>
				<g>
					<path class="st16" d="M513.6,266.2c3.2-8.3,7.9-20.4,1.8-35.6c-6.2-15.1-13.8,0.8-22.2,1.4c-8.3,0.7-9.7-14.7,7.7-20.4
						c17.4-5.8,22.4-3.8,28.9,5.2s11,37.2,11,37.2L513.6,266.2z"/>
				</g>
			</g>
			<g>
				<g>
					<path class="st16" d="M553.9,250.4c-1.3-7.1-7.1-22.2-9.6-35.3c-2.1-11.8-8.9-14.8-31.6-14.2c-17.4,0.4-9.7,11.6-5.2,11.6
						s21-1.8,23.8,7.6c2.5,8.1,5.6,37.2,5.6,37.2L553.9,250.4z"/>
				</g>
			</g>
			<g>
				<g>
					<path class="st16" d="M553.2,261.7c0-9,7.4-32.7,4.8-39.2c-2.5-6.5-12.1-23.5-17.9-20.4c-4.6,2.4,3.7,20.4,3.7,26.3
						c0,5.8-3.2,26.5-3.2,26.5L553.2,261.7z"/>
				</g>
			</g>
			<g>
				<g>
					
						<rect x="452.9" y="216.9" transform="matrix(0.8432 -0.5376 0.5376 0.8432 -39.2983 309.8691)" class="st18" width="117.3" height="10.8"/>
				</g>
			</g>
		</g>
		<g>
			<g>
				<path class="st1" d="M459.3,249.3l5.8,9.1l-8.2,0.1c-0.9,0-1.4-0.9-1.1-1.6L459.3,249.3z"/>
			</g>
		</g>
		<g>
			<g>
				<path class="st17" d="M482.8,256.1c-2.1-1.1-2.9-3.6-1.8-5.7c1.1-2.1,3.6-2.9,5.7-1.8"/>
			</g>
		</g>
		<g>
			<g>
				<path class="st17" d="M492.5,225c-1.1,2.1-2.9,3.2-4.1,2.6c-1.1-0.5-1.1-2.7,0-4.8"/>
			</g>
		</g>
		<g>
			<g>
				<path class="st17" d="M507.5,207.1c-2.3,0-4.2-1-4.3-2.2c0-1.3,1.9-2.3,4.2-2.4"/>
			</g>
		</g>
		<g>
			<g>
				<path class="st2" d="M565.6,191.4c0,3.1-2.5,5.6-5.6,5.6s-5.6-2.5-5.6-5.6s2.5-5.6,5.6-5.6C563.1,185.8,565.6,188.4,565.6,191.4
					z"/>
			</g>
		</g>
		<g>
			<g>
				<g>
					<path class="st19" d="M567.3,229.1c1.4-4,2.2-8.2,2.1-12.5c-0.1-4.1-0.9-8.3-2.7-12.1c-0.2-0.3-0.7-0.1-0.5,0.2
						c0.7,2,1.2,3.8,1.6,5.8c0.4,2,0.7,4.1,0.8,6.2c0.1,4.2-0.4,8.2-1.6,12.2C566.6,229.3,567.2,229.4,567.3,229.1L567.3,229.1z"/>
				</g>
			</g>
			<g>
				<g>
					<path class="st19" d="M579.3,224.3c1.3-3.5,2.1-7.3,2.2-11c0.1-3.5-0.1-7.4-1.5-10.7c-0.1-0.3-0.5-0.1-0.4,0.2
						c0.3,1.8,0.8,3.5,1,5.4c0.2,1.8,0.3,3.5,0.3,5.3c-0.1,3.6-0.8,7.3-2,10.7C578.6,224.4,579.1,224.6,579.3,224.3L579.3,224.3z"/>
				</g>
			</g>
		</g>
	</g>
</g>
<path class="st20" d="M630.6,412.5H0.6v-61c0-11.9,9.7-21.6,21.6-21.6H609c11.9,0,21.6,9.7,21.6,21.6V412.5z"/>
<g>
	<g class="st21">
		<path d="M153.1,383.1v-27h8c2.4,0,4.5,0.5,6.4,1.6c1.8,1.1,3.3,2.6,4.3,4.5c1,2,1.5,4.2,1.5,6.7v1.4c0,2.6-0.5,4.8-1.5,6.8
			s-2.5,3.4-4.4,4.5s-4,1.6-6.5,1.6h-7.8V383.1z M157.8,359.8v19.5h3.1c2.5,0,4.4-0.8,5.7-2.3s2-3.8,2-6.6v-1.5
			c0-2.9-0.6-5.2-1.9-6.7s-3.1-2.3-5.5-2.3h-3.4L157.8,359.8L157.8,359.8z"/>
		<path d="M186.3,383.4c-2.9,0-5.2-0.9-6.9-2.7c-1.8-1.8-2.7-4.2-2.7-7.2V373c0-2,0.4-3.8,1.2-5.4s1.9-2.8,3.3-3.7s3-1.3,4.7-1.3
			c2.7,0,4.8,0.9,6.3,2.6s2.2,4.2,2.2,7.4v1.8h-13.1c0.1,1.7,0.7,3,1.7,3.9c1,1,2.2,1.4,3.7,1.4c2.1,0,3.7-0.8,5-2.5l2.4,2.3
			c-0.8,1.2-1.9,2.1-3.2,2.8C189.5,383.1,188,383.4,186.3,383.4z M185.8,366.2c-1.2,0-2.2,0.4-3,1.3s-1.2,2.1-1.5,3.6h8.6v-0.3
			c-0.1-1.5-0.5-2.7-1.2-3.4C188,366.6,187,366.2,185.8,366.2z"/>
		<path d="M209.1,377.6c0-0.8-0.3-1.4-1-1.8s-1.8-0.8-3.3-1.1s-2.8-0.7-3.8-1.2c-2.3-1.1-3.4-2.7-3.4-4.7c0-1.7,0.7-3.2,2.2-4.3
			c1.5-1.2,3.3-1.7,5.6-1.7c2.4,0,4.3,0.6,5.8,1.8c1.5,1.2,2.2,2.7,2.2,4.6h-4.5c0-0.9-0.3-1.6-1-2.2c-0.6-0.6-1.5-0.9-2.6-0.9
			c-1,0-1.8,0.2-2.4,0.7c-0.6,0.5-0.9,1.1-0.9,1.8c0,0.7,0.3,1.2,0.9,1.6s1.8,0.8,3.5,1.2c1.8,0.4,3.2,0.9,4.2,1.4s1.8,1.2,2.2,1.9
			c0.5,0.8,0.7,1.7,0.7,2.7c0,1.8-0.7,3.3-2.2,4.4s-3.5,1.7-5.9,1.7c-1.6,0-3.1-0.3-4.4-0.9s-2.3-1.4-3-2.4s-1.1-2.2-1.1-3.4h4.4
			c0.1,1.1,0.5,1.9,1.2,2.5s1.7,0.9,3,0.9c1.2,0,2.1-0.2,2.7-0.7C208.8,378.9,209.1,378.3,209.1,377.6z"/>
		<path d="M229.5,383.1c-0.2-0.4-0.4-1-0.5-1.9c-1.4,1.5-3.2,2.2-5.3,2.2c-2,0-3.7-0.6-4.9-1.7s-1.9-2.6-1.9-4.3
			c0-2.1,0.8-3.8,2.4-4.9c1.6-1.1,3.9-1.7,6.8-1.7h2.8v-1.3c0-1-0.3-1.9-0.9-2.5c-0.6-0.6-1.5-0.9-2.7-0.9c-1,0-1.9,0.3-2.5,0.8
			s-1,1.2-1,2h-4.5c0-1.1,0.4-2.1,1.1-3.1c0.7-1,1.7-1.7,3-2.3c1.3-0.5,2.7-0.8,4.2-0.8c2.4,0,4.2,0.6,5.6,1.8
			c1.4,1.2,2.1,2.8,2.2,5v9.1c0,1.8,0.3,3.2,0.8,4.3v0.3h-4.7L229.5,383.1L229.5,383.1z M224.5,379.8c0.9,0,1.7-0.2,2.5-0.7
			c0.8-0.4,1.4-1,1.8-1.7v-3.8h-2.4c-1.7,0-2.9,0.3-3.8,0.9s-1.3,1.4-1.3,2.5c0,0.9,0.3,1.6,0.9,2.1
			C222.8,379.5,223.6,379.8,224.5,379.8z"/>
		<path d="M248.6,367.1c-0.6-0.1-1.2-0.1-1.8-0.1c-2.1,0-3.5,0.8-4.2,2.4v13.7H238V363h4.3l0.1,2.2c1.1-1.7,2.6-2.6,4.5-2.6
			c0.6,0,1.2,0.1,1.6,0.3L248.6,367.1z"/>
		<path d="M261.9,367.1c-0.6-0.1-1.2-0.1-1.8-0.1c-2.1,0-3.5,0.8-4.2,2.4v13.7h-4.5V363h4.3l0.1,2.2c1.1-1.7,2.6-2.6,4.5-2.6
			c0.6,0,1.2,0.1,1.6,0.3L261.9,367.1z"/>
		<path d="M263.3,372.8c0-2,0.4-3.7,1.2-5.3c0.8-1.6,1.9-2.8,3.3-3.6s3-1.3,4.9-1.3c2.7,0,4.9,0.9,6.6,2.6s2.6,4.1,2.7,6.9v1.1
			c0,2-0.4,3.7-1.1,5.3s-1.8,2.8-3.3,3.6c-1.4,0.9-3.1,1.3-4.9,1.3c-2.8,0-5.1-0.9-6.8-2.8c-1.7-1.9-2.6-4.4-2.6-7.5L263.3,372.8
			L263.3,372.8z M267.8,373.2c0,2.1,0.4,3.7,1.3,4.9c0.9,1.2,2,1.8,3.6,1.8s2.7-0.6,3.6-1.8c0.8-1.2,1.3-2.9,1.3-5.2
			c0-2-0.4-3.6-1.3-4.8s-2.1-1.8-3.6-1.8s-2.6,0.6-3.5,1.8C268.2,369.1,267.8,370.9,267.8,373.2z"/>
		<path d="M290.5,383.1H286v-28.5h4.5V383.1z"/>
		<path d="M300.2,383.1h-4.5v-28.5h4.5V383.1z"/>
		<path d="M304.3,372.8c0-2,0.4-3.7,1.2-5.3c0.8-1.6,1.9-2.8,3.3-3.6s3-1.3,4.9-1.3c2.7,0,4.9,0.9,6.6,2.6s2.6,4.1,2.7,6.9v1.1
			c0,2-0.4,3.7-1.1,5.3s-1.8,2.8-3.3,3.6c-1.4,0.9-3.1,1.3-4.9,1.3c-2.8,0-5.1-0.9-6.8-2.8c-1.7-1.9-2.6-4.4-2.6-7.5L304.3,372.8
			L304.3,372.8z M308.8,373.2c0,2.1,0.4,3.7,1.3,4.9c0.9,1.2,2,1.8,3.6,1.8s2.7-0.6,3.6-1.8c0.8-1.2,1.3-2.9,1.3-5.2
			c0-2-0.4-3.6-1.3-4.8s-2.1-1.8-3.6-1.8s-2.6,0.6-3.5,1.8C309.2,369.1,308.8,370.9,308.8,373.2z"/>
		<path d="M335.4,372.9c0-3.1,0.7-5.6,2.2-7.5c1.4-1.9,3.4-2.8,5.8-2.8c2.1,0,3.8,0.7,5.2,2.2v-10.3h4.5V383H349l-0.2-2.1
			c-1.3,1.6-3.1,2.4-5.4,2.4c-2.4,0-4.3-0.9-5.7-2.8C336.1,378.7,335.4,376.1,335.4,372.9z M339.9,373.3c0,2,0.4,3.6,1.2,4.8
			c0.8,1.1,1.9,1.7,3.3,1.7c1.8,0,3.2-0.8,4-2.5v-8.6c-0.8-1.6-2.2-2.4-4-2.4c-1.5,0-2.6,0.6-3.4,1.7S339.9,370.9,339.9,373.3z"/>
		<path d="M366.5,383.4c-2.9,0-5.2-0.9-6.9-2.7c-1.8-1.8-2.7-4.2-2.7-7.2V373c0-2,0.4-3.8,1.2-5.4c0.8-1.6,1.9-2.8,3.3-3.7
			s3-1.3,4.7-1.3c2.7,0,4.8,0.9,6.3,2.6s2.2,4.2,2.2,7.4v1.8h-13.1c0.1,1.7,0.7,3,1.7,3.9c1,1,2.2,1.4,3.7,1.4c2.1,0,3.7-0.8,5-2.5
			l2.4,2.3c-0.8,1.2-1.9,2.1-3.2,2.8C369.7,383.1,368.2,383.4,366.5,383.4z M366,366.2c-1.2,0-2.2,0.4-3,1.3s-1.2,2.1-1.5,3.6h8.6
			v-0.3c-0.1-1.5-0.5-2.7-1.2-3.4C368.2,366.6,367.2,366.2,366,366.2z"/>
		<path d="M382.9,383.1h-4.5v-28.5h4.5V383.1z"/>
		<path d="M402.9,358.1v4.9h3.5v3.3h-3.5v11.2c0,0.8,0.2,1.3,0.5,1.7c0.3,0.3,0.8,0.5,1.6,0.5c0.5,0,1-0.1,1.6-0.2v3.5
			c-1,0.3-2,0.4-3,0.4c-3.5,0-5.2-1.9-5.2-5.7v-11.4h-3.3V363h3.3v-4.9H402.9z"/>
		<path d="M418.7,383.4c-2.9,0-5.2-0.9-6.9-2.7c-1.8-1.8-2.7-4.2-2.7-7.2V373c0-2,0.4-3.8,1.2-5.4c0.8-1.6,1.9-2.8,3.3-3.7
			s3-1.3,4.7-1.3c2.7,0,4.8,0.9,6.3,2.6s2.2,4.2,2.2,7.4v1.8h-13.1c0.1,1.7,0.7,3,1.7,3.9c1,1,2.2,1.4,3.7,1.4c2.1,0,3.7-0.8,5-2.5
			l2.4,2.3c-0.8,1.2-1.9,2.1-3.2,2.8C421.9,383.1,420.4,383.4,418.7,383.4z M418.2,366.2c-1.2,0-2.2,0.4-3,1.3s-1.2,2.1-1.5,3.6h8.6
			v-0.3c-0.1-1.5-0.5-2.7-1.2-3.4C420.4,366.6,419.4,366.2,418.2,366.2z"/>
		<path d="M434.5,363l0.1,2.1c1.4-1.6,3.3-2.5,5.8-2.5c2.7,0,4.5,1,5.5,3.1c1.5-2.1,3.5-3.1,6.2-3.1c2.2,0,3.9,0.6,4.9,1.8
			c1.1,1.2,1.6,3,1.7,5.4V383h-4.5v-13c0-1.3-0.3-2.2-0.8-2.8s-1.5-0.9-2.8-0.9c-1,0-1.9,0.3-2.5,0.8c-0.6,0.6-1.1,1.3-1.4,2.2v13.8
			h-4.5v-13.2c-0.1-2.4-1.3-3.5-3.6-3.5c-1.8,0-3.1,0.7-3.8,2.2v14.5h-4.5V363H434.5z"/>
		<path d="M475.3,383.1c-0.2-0.4-0.4-1-0.5-1.9c-1.4,1.5-3.2,2.2-5.3,2.2c-2,0-3.7-0.6-4.9-1.7s-1.9-2.6-1.9-4.3
			c0-2.1,0.8-3.8,2.4-4.9s3.9-1.7,6.8-1.7h2.8v-1.3c0-1-0.3-1.9-0.9-2.5s-1.5-0.9-2.7-0.9c-1,0-1.9,0.3-2.5,0.8s-1,1.2-1,2h-4.5
			c0-1.1,0.4-2.1,1.1-3.1s1.7-1.7,3-2.3c1.3-0.5,2.7-0.8,4.2-0.8c2.4,0,4.2,0.6,5.6,1.8c1.4,1.2,2.1,2.8,2.2,5v9.1
			c0,1.8,0.3,3.2,0.8,4.3v0.3h-4.7V383.1z M470.4,379.8c0.9,0,1.7-0.2,2.5-0.7c0.8-0.4,1.4-1,1.8-1.7v-3.8h-2.4
			c-1.7,0-2.9,0.3-3.8,0.9s-1.3,1.4-1.3,2.5c0,0.9,0.3,1.6,0.9,2.1C468.6,379.5,469.4,379.8,470.4,379.8z"/>
	</g>
</g>
<g>
	
		<rect x="90.1" y="232.7" transform="matrix(0.9027 -0.4303 0.4303 0.9027 -102.4545 64.9861)" class="st22" width="4.7" height="52.6"/>
	
		<rect x="94.4" y="230.7" transform="matrix(0.9027 -0.4303 0.4303 0.9027 -101.168 66.647)" class="st23" width="4.7" height="52.6"/>
	<g>
		<polygon class="st24" points="61.9,208.8 78.5,236.6 83.3,234.3 69.5,205.2 		"/>
		<polygon class="st25" points="77,201.6 88.1,232 83.3,234.3 69.5,205.2 		"/>
	</g>
	<g>
		
			<rect x="80" y="233.5" transform="matrix(0.9027 -0.4303 0.4303 0.9027 -95.4277 60.8138)" class="st26" width="13.5" height="15.8"/>
		
			<rect x="78.6" y="237.1" transform="matrix(0.9027 -0.4303 0.4303 0.9027 -94.3221 59.9279)" class="st27" width="13.5" height="2.8"/>
		
			<rect x="81.3" y="242.8" transform="matrix(0.9027 -0.4303 0.4303 0.9027 -96.5146 61.6451)" class="st27" width="13.5" height="2.8"/>
	</g>
	<path class="st28" d="M103.1,276.6v69.7c-19.7,0-39.1-6-46-24.4c-2.8-7.4-3.5-16.2,3.4-31.8c1.9-4.3,4.4-9,7.3-13.5H103.1z"/>
	<path class="st29" d="M139.9,334.3c-3.2,3-7.3,5.8-12.7,7.9c-6.4,2.5-14.6,4.1-25,4.1v-69.7h35.3c4.8,7.5,8.5,15.4,10.5,21.8
		C152.7,313.7,148.7,325.9,139.9,334.3z"/>
	<path class="st24" d="M103.1,267.1v9.5H67.8c2.7-4.1,5.3-7.5,7.4-9.5H103.1z"/>
	<path class="st25" d="M137.4,276.6h-35.3v-9.5H130C132.1,269.1,134.7,272.5,137.4,276.6z"/>
</g>
</svg>
